<?xml version="1.0" encoding="utf-8"?>
<!-- Generator: Adobe Illustrator 24.0.1, SVG Export Plug-In . SVG Version: 6.00 Build 0)  -->
<svg version="1.1" id="Capa_1" xmlns="http://www.w3.org/2000/svg" xmlns:xlink="http://www.w3.org/1999/xlink" x="0px" y="0px"
	 viewBox="0 0 378.97 336.61" style="enable-background:new 0 0 378.97 336.61;" xml:space="preserve">
<style type="text/css">
	.st0{clip-path:url(#SVGID_2_);fill:#E83565;}
	.st1{clip-path:url(#SVGID_2_);fill:#3C63AD;}
	.st2{clip-path:url(#SVGID_2_);fill:none;stroke:#E83565;stroke-width:7.1618;stroke-miterlimit:10;}
</style>
<g>
	<defs>
		<rect id="SVGID_1_" x="17.99" y="59.63" width="337" height="218.3"/>
	</defs>
	<clipPath id="SVGID_2_">
		<use xlink:href="#SVGID_1_"  style="overflow:visible;"/>
	</clipPath>
	<path class="st0" d="M68.52,191.41H34.91c-4.17,0-7.43,3.3-7.43,7.52c0,4.27,3.22,7.61,7.34,7.61h8.66v43.88
		c0,4.54,3.77,8.23,8.41,8.23c4.37,0,8.05-3.77,8.05-8.23v-43.79h8.57c4.14,0,7.52-3.37,7.52-7.52
		C76.04,194.86,72.67,191.41,68.52,191.41"/>
	<path class="st0" d="M90.95,190.7c-4.59,0-8.32,3.77-8.32,8.41v51.31c0,4.54,3.69,8.23,8.23,8.23c4.62,0,8.23-3.58,8.23-8.14v-51.4
		C99.1,194.39,95.52,190.7,90.95,190.7"/>
	<path class="st0" d="M153.65,239.41c-0.45,0-2,0.05-3.23,0.69c-0.41,0.12-1.08,0.41-2.52,1.09c-3,1.29-5.72,1.89-8.55,1.89
		c-9.24,0-15.45-7.43-15.45-18.49c0-11.17,6.21-18.67,15.45-18.67c2.39,0,4.84,0.53,7.94,1.72c3.58,1.44,4.37,1.59,5.91,1.59
		c3.85,0,6.98-3.41,6.98-7.61c0-6.53-8.54-11.27-20.3-11.27c-19.17,0-33.09,14.44-33.09,34.33c0,19.85,13.76,34.25,32.73,34.25
		c11.93,0,21.28-5.19,21.28-11.81C160.81,242.79,157.67,239.41,153.65,239.41"/>
	<path class="st1" d="M202.27,238.67c2.96,0,5.29,2.33,5.29,5.01c0,2.96-2.26,5.22-5.15,5.22h-24.63c-3.32,0-5.65-2.04-5.65-5.08
		c0-1.34,0.63-2.47,2.12-4.16l8.75-10.16c3.03-3.53,6.91-8.18,8.25-9.95c2.19-3.03,3.11-5.08,3.11-7.06c0-2.75-2.19-4.87-5.01-4.87
		c-2.61,0-4.8,1.84-5.93,4.73l-0.99,2.61c-0.99,2.54-2.33,3.67-4.66,3.67c-3.18,0-5.22-2.12-5.22-5.72c0-8.54,7.9-15.81,17.36-15.81
		c9.31,0,16.3,6.42,16.3,14.82c0,3.81-1.48,7.83-4.24,11.72c-1.2,1.69-2.75,3.53-4.44,5.65c-3.39,4.09-4.45,5.43-8.12,9.38H202.27z"
		/>
	<path class="st1" d="M218.01,203.39c3.25-3.74,8.4-6.21,13.41-6.21c5.01,0,9.95,2.33,13.41,6.21c4.02,4.58,5.86,10.65,5.86,20.11
		c0,9.39-1.69,15.17-5.86,20.04c-3.18,3.81-8.4,6.21-13.41,6.21c-5.01,0-9.95-2.33-13.41-6.21c-4.02-4.59-5.79-10.66-5.79-20.04
		C212.22,214.05,213.92,208.26,218.01,203.39 M223.66,223.5c0,10.3,2.75,16.02,7.76,16.02c4.94,0,7.69-5.72,7.69-16.02
		c-0.07-10.3-2.75-16.09-7.69-16.09C226.48,207.41,223.66,213.27,223.66,223.5"/>
	<path class="st0" d="M285.54,231.1c2.96,0,5.29,2.33,5.29,5.01c0,2.96-2.26,5.22-5.15,5.22h-24.63c-3.32,0-5.64-2.05-5.64-5.08
		c0-1.34,0.64-2.47,2.12-4.16l8.75-10.16c3.03-3.53,6.92-8.18,8.26-9.95c2.19-3.03,3.1-5.08,3.1-7.06c0-2.75-2.19-4.87-5.01-4.87
		c-2.61,0-4.8,1.84-5.93,4.73l-0.99,2.61c-0.99,2.54-2.33,3.67-4.66,3.67c-3.17,0-5.22-2.12-5.22-5.71c0-8.54,7.9-15.81,17.36-15.81
		c9.31,0,16.3,6.42,16.3,14.82c0,3.81-1.48,7.84-4.23,11.72c-1.2,1.69-2.75,3.53-4.45,5.65c-3.39,4.09-4.44,5.43-8.12,9.38H285.54z"
		/>
	<path class="st0" d="M327.18,231.1c2.96,0,5.29,2.33,5.29,5.01c0,2.96-2.26,5.22-5.15,5.22h-24.63c-3.32,0-5.65-2.05-5.65-5.08
		c0-1.34,0.63-2.47,2.12-4.16l8.75-10.16c3.03-3.53,6.92-8.18,8.26-9.95c2.19-3.03,3.1-5.08,3.1-7.06c0-2.75-2.19-4.87-5.01-4.87
		c-2.61,0-4.8,1.84-5.93,4.73l-0.99,2.61c-0.99,2.54-2.33,3.67-4.66,3.67c-3.18,0-5.22-2.12-5.22-5.71c0-8.54,7.9-15.81,17.36-15.81
		c9.31,0,16.3,6.42,16.3,14.82c0,3.81-1.48,7.84-4.23,11.72c-1.2,1.69-2.75,3.53-4.45,5.65c-3.39,4.09-4.45,5.43-8.12,9.38H327.18z"
		/>
	<path class="st1" d="M267.28,250.13c7.68,2.53,18.26,4.31,26.97,4.31c6.09,0,13.76-0.84,19.76-2.25c3.65-0.84,8.43-2.25,12.83-3.84
		c1.41-0.56,2.53-0.84,3.37-0.84c3,0,5.9,3.09,5.9,6.27c0,2.9-1.4,4.68-4.59,5.99c-10.2,4.4-24.91,7.3-37.08,7.3
		c-4.4,0-9.27-0.38-14.42-1.13c-6.37-0.94-10.68-1.97-17.23-4.12c-8.33-2.62-10.21-4.21-10.21-8.05c0-3.18,2.81-6.27,5.81-6.27
		c0.75,0,1.87,0.37,3.37,0.84L267.28,250.13z"/>
	<path class="st0" d="M30.06,144.43l4.57,6.51c0.57,0.8,0.86,1.77,0.86,2.51c0,2-1.6,3.6-3.66,3.6c-1.2,0-2.46-0.63-3.26-1.83
		l-5.37-7.82c-0.8-1.2-1.14-2.23-1.14-3.03c0-0.8,0.4-1.94,1.26-3.2l5.26-7.43c0.86-1.2,2.11-2,3.2-2c2.11,0,3.77,1.6,3.77,3.6
		c0,0.74-0.4,1.77-0.97,2.63L30.06,144.43z"/>
	<path class="st1" d="M338.4,209.3c-0.57-0.86-0.97-1.88-0.97-2.63c0-2,1.66-3.6,3.77-3.6c1.09,0,2.34,0.8,3.2,2l5.26,7.42
		c0.86,1.26,1.26,2.4,1.26,3.2c0,0.8-0.34,1.83-1.15,3.03l-5.37,7.82c-0.8,1.2-2.06,1.83-3.26,1.83c-2.06,0-3.66-1.6-3.66-3.6
		c0-0.74,0.29-1.71,0.86-2.51l4.57-6.51L338.4,209.3z"/>
	<path class="st1" d="M60.71,135.23l-5.6,39.01c-0.69,4.91-3.54,7.57-7.96,7.57c-4.72,0-8.06-3.44-8.06-8.25c0-0.49,0-0.98,0.2-1.57
		l9.14-54.25c0.79-4.81,5.41-8.45,10.61-8.45c5.11,0,9.04,2.85,10.51,7.96l11.1,37.44l11.3-37.44c1.47-5.01,5.31-7.96,10.51-7.96
		c5.21,0,9.73,3.64,10.51,8.45l9.14,54.25c0.1,0.59,0.2,1.08,0.2,1.57c0,4.82-3.44,8.25-7.96,8.25c-4.52,0-7.37-2.65-8.06-7.57
		l-5.7-39.01l-11.79,40.19c-1.47,4.91-3.34,6.39-8.16,6.39c-4.03,0-6.98-2.36-8.16-6.39L60.71,135.23z"/>
	<path class="st1" d="M143.34,174.25c0,4.22-3.44,7.67-7.57,7.67c-4.22,0-7.76-3.44-7.76-7.57v-39.41c0-4.22,3.54-7.66,7.76-7.66
		c4.13,0,7.57,3.44,7.57,7.66V174.25z"/>
	<path class="st1" d="M177.04,141.52c-2.55-1.08-5.5-1.77-7.17-1.77c-2.65,0-4.62,1.37-4.62,3.24c0,2.16,1.37,2.95,8.16,5.6
		c5.31,2.06,7.57,3.05,10.22,4.72c4.23,2.65,6.68,7.17,6.68,11.89c0,9.93-8.75,16.9-20.83,16.9c-10.81,0-20.64-5.31-20.64-11.2
		c0-3.54,2.85-6.58,6.39-6.58c1.28,0,2.95,0.59,4.81,1.38l2.75,1.57c2.56,1.47,5.41,2.16,7.27,2.16c3.05,0,5.41-1.77,5.41-4.03
		c0-1.77-1.97-3.24-5.8-4.72l-4.03-1.57c-4.62-1.87-8.25-3.34-10.32-4.82c-2.95-2.16-4.82-6.19-4.82-10.42
		c0-9.83,8.55-16.9,20.34-16.9c9.63,0,18.18,4.72,18.18,10.32c0,3.34-2.65,6.19-5.99,6.19c-0.98,0-2.36-0.3-3.34-0.79L177.04,141.52
		z"/>
	<path class="st1" d="M203.47,104.97c4.62,0,8.55,4.03,8.55,8.85c0,4.81-3.73,8.65-8.55,8.65c-4.91,0-8.85-3.93-8.85-8.65
		C194.63,108.9,198.56,104.97,203.47,104.97 M211.04,174.25c0,4.22-3.44,7.67-7.57,7.67c-4.23,0-7.76-3.44-7.76-7.57v-39.41
		c0-4.22,3.54-7.66,7.76-7.66c4.13,0,7.57,3.44,7.57,7.66V174.25z"/>
	<path class="st1" d="M292.2,130.62c2.85-2.26,7.57-3.64,11.89-3.64c5.3,0,10.61,1.87,14.35,5.41c3.64,3.44,5.21,7.47,5.21,13.66
		v28.3c0,4.22-3.44,7.66-7.57,7.66c-4.22,0-7.76-3.44-7.76-7.57V148.6c0-4.82-3.93-8.84-8.84-8.84c-4.81,0-8.75,4.03-8.75,8.84
		v25.75c0,4.13-3.44,7.57-7.66,7.57c-4.13,0-7.57-3.44-7.57-7.67v-39.21c0-4.22,3.44-7.76,7.67-7.76c1.57,0,4.13,2.16,6.68,5.5
		C290.92,131.7,291.61,131.01,292.2,130.62"/>
	<path class="st0" d="M244.04,126.75c-15.35,0-27.79,12.44-27.79,27.79c0,15.35,12.44,27.79,27.79,27.79
		c15.35,0,27.79-12.44,27.79-27.79C271.83,139.19,259.39,126.75,244.04,126.75 M244.04,167.14c-6.96,0-12.59-5.64-12.59-12.59
		c0-6.96,5.64-12.59,12.59-12.59c6.96,0,12.59,5.64,12.59,12.59C256.63,161.5,250.99,167.14,244.04,167.14"/>
	<path class="st2" d="M137.57,110.32c8.07-12.46,21.24-23.79,37.91-31.32c35.29-15.95,72.95-8.85,84.11,15.84
		c6.42,14.2,2.67,31.14-8.38,46"/>
	<path class="st0" d="M135.77,104.97c4.62,0,8.55,4.03,8.55,8.84c0,4.82-3.73,8.65-8.55,8.65c-4.91,0-8.84-3.93-8.84-8.65
		C126.93,108.9,130.86,104.97,135.77,104.97"/>
</g>
</svg>
