<svg xmlns="http://www.w3.org/2000/svg" xmlns:xlink="http://www.w3.org/1999/xlink" viewBox="0 0 979.72 673.79"><defs><style>.cls-1{opacity:0.2;}.cls-10,.cls-11,.cls-12,.cls-13,.cls-14,.cls-15,.cls-16,.cls-17,.cls-18,.cls-19,.cls-2,.cls-20,.cls-21,.cls-22,.cls-23,.cls-24,.cls-25,.cls-27,.cls-28,.cls-29,.cls-3,.cls-30,.cls-31,.cls-32,.cls-33,.cls-34,.cls-35,.cls-36,.cls-37,.cls-38,.cls-39,.cls-4,.cls-40,.cls-41,.cls-42,.cls-43,.cls-44,.cls-45,.cls-46,.cls-47,.cls-48,.cls-49,.cls-5,.cls-50,.cls-51,.cls-52,.cls-6,.cls-7,.cls-8,.cls-9{fill:none;stroke-miterlimit:10;}.cls-10,.cls-11,.cls-12,.cls-13,.cls-14,.cls-15,.cls-16,.cls-17,.cls-18,.cls-19,.cls-2,.cls-20,.cls-21,.cls-22,.cls-23,.cls-24,.cls-25,.cls-27,.cls-28,.cls-29,.cls-3,.cls-30,.cls-31,.cls-32,.cls-33,.cls-34,.cls-35,.cls-36,.cls-4,.cls-5,.cls-6,.cls-7,.cls-8,.cls-9{stroke-width:0.97px;}.cls-2{stroke:url(#linear-gradient);}.cls-3{stroke:url(#linear-gradient-2);}.cls-4{stroke:url(#linear-gradient-3);}.cls-5{stroke:url(#linear-gradient-4);}.cls-6{stroke:url(#linear-gradient-5);}.cls-7{stroke:url(#linear-gradient-6);}.cls-8{stroke:url(#linear-gradient-7);}.cls-9{stroke:url(#linear-gradient-8);}.cls-10{stroke:url(#linear-gradient-9);}.cls-11{stroke:url(#linear-gradient-10);}.cls-12{stroke:url(#linear-gradient-11);}.cls-13{stroke:url(#linear-gradient-12);}.cls-14{stroke:url(#linear-gradient-13);}.cls-15{stroke:url(#linear-gradient-14);}.cls-16{stroke:url(#linear-gradient-15);}.cls-17{stroke:url(#linear-gradient-16);}.cls-18{stroke:url(#linear-gradient-17);}.cls-19{stroke:url(#linear-gradient-18);}.cls-20{stroke:url(#linear-gradient-19);}.cls-21{stroke:url(#linear-gradient-20);}.cls-22{stroke:url(#linear-gradient-21);}.cls-23{stroke:url(#linear-gradient-22);}.cls-24{stroke:url(#linear-gradient-23);}.cls-25{stroke:url(#linear-gradient-24);}.cls-26{fill:#3d44a1;}.cls-27{stroke:url(#linear-gradient-25);}.cls-28{stroke:url(#linear-gradient-26);}.cls-29{stroke:url(#linear-gradient-27);}.cls-30{stroke:url(#linear-gradient-28);}.cls-31{stroke:url(#linear-gradient-29);}.cls-32{stroke:url(#linear-gradient-30);}.cls-33{stroke:url(#linear-gradient-31);}.cls-34{stroke:url(#linear-gradient-32);}.cls-35{stroke:url(#linear-gradient-33);}.cls-36{stroke:url(#linear-gradient-34);}.cls-37,.cls-38,.cls-39,.cls-40,.cls-41,.cls-42,.cls-43,.cls-44,.cls-45,.cls-46,.cls-47,.cls-48,.cls-49,.cls-50,.cls-51,.cls-52{stroke-width:1.56px;}.cls-37{stroke:url(#linear-gradient-35);}.cls-38{stroke:url(#linear-gradient-36);}.cls-39{stroke:url(#linear-gradient-37);}.cls-40{stroke:url(#linear-gradient-38);}.cls-41{stroke:url(#linear-gradient-39);}.cls-42{stroke:url(#linear-gradient-40);}.cls-43{stroke:url(#linear-gradient-41);}.cls-44{stroke:url(#linear-gradient-42);}.cls-45{stroke:url(#linear-gradient-43);}.cls-46{stroke:url(#linear-gradient-44);}.cls-47{stroke:url(#linear-gradient-45);}.cls-48{stroke:url(#linear-gradient-46);}.cls-49{stroke:url(#linear-gradient-47);}.cls-50{stroke:url(#linear-gradient-48);}.cls-51{stroke:url(#linear-gradient-49);}.cls-52{stroke:url(#linear-gradient-50);}.cls-53{fill:#2875d4;}</style><linearGradient id="linear-gradient" x1="-8.08" y1="327.5" x2="136.66" y2="327.5" gradientTransform="translate(559.94 881.29) rotate(180)" gradientUnits="userSpaceOnUse"><stop offset="0" stop-color="#2a2e8b"/><stop offset="1" stop-color="#180e68"/></linearGradient><linearGradient id="linear-gradient-2" x1="134.25" y1="332.59" x2="144.55" y2="332.59" xlink:href="#linear-gradient"/><linearGradient id="linear-gradient-3" x1="71.72" y1="424.69" x2="123.81" y2="424.69" xlink:href="#linear-gradient"/><linearGradient id="linear-gradient-4" x1="72.3" y1="465.44" x2="106.73" y2="465.44" xlink:href="#linear-gradient"/><linearGradient id="linear-gradient-5" x1="47.53" y1="480.04" x2="151.74" y2="480.04" xlink:href="#linear-gradient"/><linearGradient id="linear-gradient-6" x1="115.32" y1="502.13" x2="176.32" y2="502.13" xlink:href="#linear-gradient"/><linearGradient id="linear-gradient-7" x1="75.88" y1="479.88" x2="132.84" y2="479.88" xlink:href="#linear-gradient"/><linearGradient id="linear-gradient-8" x1="-42.4" y1="391.4" x2="29.85" y2="391.4" xlink:href="#linear-gradient"/><linearGradient id="linear-gradient-9" x1="-105.2" y1="441.26" x2="-6.04" y2="441.26" xlink:href="#linear-gradient"/><linearGradient id="linear-gradient-10" x1="-167.63" y1="468.14" x2="175.64" y2="468.14" xlink:href="#linear-gradient"/><linearGradient id="linear-gradient-11" x1="-71.19" y1="414.76" x2="-63.71" y2="414.76" xlink:href="#linear-gradient"/><linearGradient id="linear-gradient-12" x1="-76.22" y1="372.89" x2="-41.65" y2="372.89" xlink:href="#linear-gradient"/><linearGradient id="linear-gradient-13" x1="-187.2" y1="464.43" x2="-165.4" y2="464.43" xlink:href="#linear-gradient"/><linearGradient id="linear-gradient-14" x1="-10.23" y1="460.79" x2="18.69" y2="460.79" xlink:href="#linear-gradient"/><linearGradient id="linear-gradient-15" x1="22.87" y1="401.12" x2="74.93" y2="401.12" xlink:href="#linear-gradient"/><linearGradient id="linear-gradient-16" x1="-79.45" y1="276.45" x2="23.76" y2="276.45" xlink:href="#linear-gradient"/><linearGradient id="linear-gradient-17" x1="-186.29" y1="251.11" x2="-48.47" y2="251.11" xlink:href="#linear-gradient"/><linearGradient id="linear-gradient-18" x1="-386" y1="337.64" x2="240.36" y2="337.64" xlink:href="#linear-gradient"/><linearGradient id="linear-gradient-19" x1="-417.37" y1="276.95" x2="-312.38" y2="276.95" xlink:href="#linear-gradient"/><linearGradient id="linear-gradient-20" x1="-329.07" y1="287.88" x2="-240.98" y2="287.88" xlink:href="#linear-gradient"/><linearGradient id="linear-gradient-21" x1="72.89" y1="282.29" x2="134.93" y2="282.29" xlink:href="#linear-gradient"/><linearGradient id="linear-gradient-22" x1="133.04" y1="279.86" x2="193.2" y2="279.86" xlink:href="#linear-gradient"/><linearGradient id="linear-gradient-23" x1="90.59" y1="294.82" x2="168.17" y2="294.82" xlink:href="#linear-gradient"/><linearGradient id="linear-gradient-24" x1="191.83" y1="281.78" x2="220.7" y2="281.78" xlink:href="#linear-gradient"/><linearGradient id="linear-gradient-25" x1="1737.44" y1="892.17" x2="1789.54" y2="892.17" gradientTransform="translate(-1279.72 -634.17)" xlink:href="#linear-gradient"/><linearGradient id="linear-gradient-26" x1="1738.02" y1="932.91" x2="1772.46" y2="932.91" gradientTransform="translate(-1279.72 -634.17)" xlink:href="#linear-gradient"/><linearGradient id="linear-gradient-27" x1="1713.26" y1="947.51" x2="1817.46" y2="947.51" gradientTransform="translate(-1279.72 -634.17)" xlink:href="#linear-gradient"/><linearGradient id="linear-gradient-28" x1="1781.05" y1="969.61" x2="1842.05" y2="969.61" gradientTransform="translate(-1279.72 -634.17)" xlink:href="#linear-gradient"/><linearGradient id="linear-gradient-29" x1="1741.6" y1="947.36" x2="1798.56" y2="947.36" gradientTransform="translate(-1279.72 -634.17)" xlink:href="#linear-gradient"/><linearGradient id="linear-gradient-30" x1="1623.32" y1="858.87" x2="1695.57" y2="858.87" gradientTransform="translate(-1279.72 -634.17)" xlink:href="#linear-gradient"/><linearGradient id="linear-gradient-31" x1="1560.52" y1="908.73" x2="1659.69" y2="908.73" gradientTransform="translate(-1279.72 -634.17)" xlink:href="#linear-gradient"/><linearGradient id="linear-gradient-32" x1="1498.11" y1="935.62" x2="1841.37" y2="935.62" gradientTransform="translate(-1279.72 -634.17)" xlink:href="#linear-gradient"/><linearGradient id="linear-gradient-33" x1="1655.5" y1="928.26" x2="1684.41" y2="928.26" gradientTransform="translate(-1279.72 -634.17)" xlink:href="#linear-gradient"/><linearGradient id="linear-gradient-34" x1="1279.72" y1="805.12" x2="1906.09" y2="805.12" gradientTransform="translate(-1279.72 -634.17)" xlink:href="#linear-gradient"/><linearGradient id="linear-gradient-35" x1="-173.73" y1="461.3" x2="261.04" y2="461.3" gradientTransform="translate(559.94 881.29) rotate(180)" gradientUnits="userSpaceOnUse"><stop offset="0" stop-color="#0055c0"/><stop offset="1" stop-color="#1e187a"/></linearGradient><linearGradient id="linear-gradient-36" x1="-148.47" y1="611" x2="-48.03" y2="611" xlink:href="#linear-gradient-35"/><linearGradient id="linear-gradient-37" x1="91.5" y1="369.85" x2="316.16" y2="369.85" xlink:href="#linear-gradient-35"/><linearGradient id="linear-gradient-38" x1="37.59" y1="554.75" x2="253.75" y2="554.75" xlink:href="#linear-gradient-35"/><linearGradient id="linear-gradient-39" x1="-82.8" y1="638.72" x2="115.68" y2="638.72" xlink:href="#linear-gradient-35"/><linearGradient id="linear-gradient-40" x1="-49.53" y1="649.17" x2="204.83" y2="649.17" xlink:href="#linear-gradient-35"/><linearGradient id="linear-gradient-41" x1="190.01" y1="629.23" x2="285.28" y2="629.23" xlink:href="#linear-gradient-35"/><linearGradient id="linear-gradient-42" x1="170.8" y1="432.59" x2="279.01" y2="432.59" xlink:href="#linear-gradient-35"/><linearGradient id="linear-gradient-43" x1="-252.62" y1="289.07" x2="-190.4" y2="289.07" xlink:href="#linear-gradient-35"/><linearGradient id="linear-gradient-44" x1="-186.89" y1="505.33" x2="-131.5" y2="505.33" xlink:href="#linear-gradient-35"/><linearGradient id="linear-gradient-45" x1="-354.14" y1="331.24" x2="-39.19" y2="331.24" xlink:href="#linear-gradient-35"/><linearGradient id="linear-gradient-46" x1="-31.75" y1="465.76" x2="142.4" y2="465.76" xlink:href="#linear-gradient-35"/><linearGradient id="linear-gradient-47" x1="77.65" y1="391.01" x2="93.38" y2="391.01" xlink:href="#linear-gradient-35"/><linearGradient id="linear-gradient-48" x1="-148.99" y1="546.69" x2="95.66" y2="546.69" xlink:href="#linear-gradient-35"/><linearGradient id="linear-gradient-49" x1="-59.31" y1="275.18" x2="37.28" y2="275.18" xlink:href="#linear-gradient-35"/><linearGradient id="linear-gradient-50" x1="-215.33" y1="400.5" x2="-123.21" y2="400.5" xlink:href="#linear-gradient-35"/></defs><g id="Layer_2" data-name="Layer 2"><g id="Capa_1" data-name="Capa 1"><g class="cls-1"><polyline class="cls-2" points="497.12 521.61 486.62 555.48 425.25 538.88 497.12 521.61 531.32 565.3 567.78 586.1"/><line class="cls-3" x1="425.25" y1="538.88" x2="415.83" y2="558.53"/><polyline class="cls-4" points="485.26 486.73 437.17 487.07 486.95 426.44 438.52 437.28 437.17 487.07"/><polygon class="cls-5" points="486.95 426.44 482.89 404.76 454.78 405.78 486.95 426.44"/><polyline class="cls-6" points="454.78 405.78 438.52 437.28 409.05 425.76 427.68 406.12 454.78 405.78 482.21 366.15 482.89 404.76 512.36 407.81"/><polygon class="cls-7" points="385.01 352.26 443.94 371.57 427.68 406.12 385.01 352.26"/><polyline class="cls-8" points="443.94 371.57 482.21 366.15 427.68 406.12 438.52 437.28"/><polyline class="cls-9" points="569.94 412.89 601.77 501.63 531.32 565.3 566.21 477.92 601.77 501.63"/><polyline class="cls-10" points="664.77 377.67 637.34 409.17 642.08 443.71 624.13 447.44 601.77 501.63 630.65 485.63 654.27 479.78 624.13 447.44 566.21 477.92"/><polyline class="cls-11" points="399.57 320.09 385.01 352.26 482.21 366.15 512.36 407.81 486.95 426.44 485.26 486.73 527.28 505.86 566.21 477.92 569.94 412.89 664.77 377.67 725.74 432.2 637.34 409.17 569.94 412.89 569.94 412.89 624.13 447.44 637.34 409.17"/><line class="cls-12" x1="624.13" y1="447.44" x2="630.65" y2="485.63"/><line class="cls-13" x1="601.77" y1="501.63" x2="635.98" y2="515.18"/><line class="cls-14" x1="725.74" y1="432.2" x2="746.74" y2="401.54"/><line class="cls-15" x1="569.94" y1="412.89" x2="541.48" y2="428.13"/><polyline class="cls-16" points="527.28 505.86 536.4 455.4 485.26 486.73"/><polyline class="cls-17" points="639.03 619.16 608.89 586.64 536.4 623.22"/><polyline class="cls-18" points="608.89 586.64 614.98 635.08 680.69 649.3 705.08 610.69 745.72 616.11 743.43 673.1 680.69 649.3"/><polyline class="cls-19" points="743.43 673.1 801.27 646.25 872.73 618.14 931.33 647.61 945.21 610.35 872.73 618.14 800.93 594.77 801.27 646.25 745.72 616.11 680.69 649.3 639.03 619.16 614.98 635.08 536.4 623.22 486.62 555.48 531.32 565.3 527.28 505.86 497.12 521.61 437.17 487.07 409.05 425.76 319.64 414.25"/><polyline class="cls-20" points="872.73 618.14 888.99 592.06 945.21 610.35 977.05 590.71"/><line class="cls-21" x1="888.99" y1="592.06" x2="800.93" y2="594.77"/><polyline class="cls-22" points="486.62 555.48 469.34 586.98 425.65 617.13 440.21 642.53"/><polygon class="cls-23" points="425.65 617.13 367.73 617.13 391.78 585.97 425.65 617.13"/><line class="cls-24" x1="391.78" y1="585.97" x2="469.34" y2="586.98"/><line class="cls-25" x1="367.73" y1="617.13" x2="339.62" y2="581.9"/><path class="cls-26" d="M382.81,352.19a2.73,2.73,0,1,0,2.73-2.73A2.73,2.73,0,0,0,382.81,352.19Z"/><path class="cls-26" d="M452.58,405.7a2.73,2.73,0,1,0,2.73-2.73A2.73,2.73,0,0,0,452.58,405.7Z"/><path class="cls-26" d="M406.32,425.76a2.73,2.73,0,1,0,2.73-2.73A2.73,2.73,0,0,0,406.32,425.76Z"/><path class="cls-26" d="M509,408.24a2.73,2.73,0,1,0,2.73-2.73A2.73,2.73,0,0,0,509,408.24Z"/><path class="cls-26" d="M479.5,404.43a2.73,2.73,0,1,0,2.73-2.73A2.73,2.73,0,0,0,479.5,404.43Z"/><path class="cls-26" d="M479.84,366.5a2.73,2.73,0,1,0,2.73-2.73A2.73,2.73,0,0,0,479.84,366.5Z"/><path class="cls-26" d="M435.05,486a2.73,2.73,0,1,0,2.73-2.73A2.73,2.73,0,0,0,435.05,486Z"/><path class="cls-26" d="M533.86,455.49a2.73,2.73,0,1,0,2.73-2.73A2.73,2.73,0,0,0,533.86,455.49Z"/><path class="cls-26" d="M524.21,505.54a2.73,2.73,0,1,0,2.73-2.73A2.73,2.73,0,0,0,524.21,505.54Z"/><path class="cls-26" d="M528.11,564.81a2.73,2.73,0,1,0,2.73-2.73A2.73,2.73,0,0,0,528.11,564.81Z"/><circle class="cls-26" cx="496.97" cy="521.62" r="1.91"/><path class="cls-26" d="M485.07,555.32a1.91,1.91,0,1,0,1.91-1.91A1.91,1.91,0,0,0,485.07,555.32Z"/><circle class="cls-26" cx="391.78" cy="585.97" r="1.91"/><circle class="cls-26" cx="485.54" cy="486.48" r="1.91"/><circle class="cls-26" cx="486.55" cy="426.11" r="1.91"/><circle class="cls-26" cx="443.37" cy="371.41" r="1.91"/><path class="cls-26" d="M436.62,437.28a1.91,1.91,0,1,0,1.91-1.91A1.91,1.91,0,0,0,436.62,437.28Z"/><circle class="cls-26" cx="566.21" cy="477.92" r="1.91"/><path class="cls-26" d="M422.52,538.88a2.73,2.73,0,1,0,2.73-2.73A2.73,2.73,0,0,0,422.52,538.88Z"/><path class="cls-26" d="M565.28,586.13A2.73,2.73,0,1,0,568,583.4,2.73,2.73,0,0,0,565.28,586.13Z"/><path class="cls-26" d="M606.18,587.15a2.73,2.73,0,1,0,2.73-2.73A2.73,2.73,0,0,0,606.18,587.15Z"/><path class="cls-26" d="M798.73,594.77a2.73,2.73,0,1,0,2.73-2.73A2.73,2.73,0,0,0,798.73,594.77Z"/><path class="cls-26" d="M885.61,592a2.73,2.73,0,1,0,2.73-2.73A2.73,2.73,0,0,0,885.61,592Z"/><circle class="cls-26" cx="976.99" cy="590.7" r="2.73"/><path class="cls-26" d="M466,586.89a2.73,2.73,0,1,0,2.73-2.73A2.73,2.73,0,0,0,466,586.89Z"/><path class="cls-26" d="M412.87,558.44a2.73,2.73,0,1,0,2.73-2.73A2.73,2.73,0,0,0,412.87,558.44Z"/><path class="cls-26" d="M598.89,500.71a2.73,2.73,0,1,0,2.73-2.73A2.73,2.73,0,0,0,598.89,500.71Z"/><path class="cls-26" d="M650.71,478.86a2.73,2.73,0,1,0,2.73-2.73A2.73,2.73,0,0,0,650.71,478.86Z"/><path class="cls-26" d="M723,432.2a2.73,2.73,0,1,0,2.73-2.73A2.73,2.73,0,0,0,723,432.2Z"/><path class="cls-26" d="M743.33,401.71a2.73,2.73,0,1,0,2.73-2.73A2.73,2.73,0,0,0,743.33,401.71Z"/><path class="cls-26" d="M661.28,378.09a2.73,2.73,0,1,0,2.73-2.73A2.73,2.73,0,0,0,661.28,378.09Z"/><path class="cls-26" d="M567,413.4a2.73,2.73,0,1,0,2.73-2.73A2.73,2.73,0,0,0,567,413.4Z"/><path class="cls-26" d="M585.58,466.74a2.73,2.73,0,1,0,2.73-2.73A2.73,2.73,0,0,0,585.58,466.74Z"/><path class="cls-26" d="M621.52,447.69a2.73,2.73,0,1,0,2.73-2.73A2.73,2.73,0,0,0,621.52,447.69Z"/><path class="cls-26" d="M634.73,409.08a2.73,2.73,0,1,0,2.73-2.73A2.73,2.73,0,0,0,634.73,409.08Z"/><path class="cls-26" d="M639.56,443.88a2.73,2.73,0,1,0,2.73-2.73A2.73,2.73,0,0,0,639.56,443.88Z"/><path class="cls-26" d="M628.38,485.16a2.73,2.73,0,1,0,2.73-2.73A2.73,2.73,0,0,0,628.38,485.16Z"/><path class="cls-26" d="M538.33,428.64a2.73,2.73,0,1,0,2.73-2.73A2.73,2.73,0,0,0,538.33,428.64Z"/><path class="cls-26" d="M632.93,514.68a2.73,2.73,0,1,0,2.73-2.73A2.73,2.73,0,0,0,632.93,514.68Z"/><path class="cls-26" d="M396.78,320.44a2.73,2.73,0,1,0,2.73-2.73A2.73,2.73,0,0,0,396.78,320.44Z"/><polyline class="cls-27" points="460.68 227.88 508.78 227.54 458.99 288.17 507.42 277.33 508.78 227.54"/><polygon class="cls-28" points="458.99 288.17 463.06 309.84 491.17 308.83 458.99 288.17"/><polyline class="cls-29" points="491.17 308.83 507.42 277.33 536.89 288.84 518.26 308.49 491.17 308.83 463.73 348.45 463.06 309.84 433.59 306.79"/><polygon class="cls-30" points="560.94 362.34 502.01 343.03 518.26 308.49 560.94 362.34"/><polyline class="cls-31" points="502.01 343.03 463.73 348.45 518.26 308.49 507.42 277.33"/><polyline class="cls-32" points="376.01 301.71 344.17 212.97 414.62 149.3 379.74 236.68 344.17 212.97"/><polyline class="cls-33" points="281.17 336.94 308.61 305.44 303.87 270.89 321.82 267.17 344.17 212.97 315.3 228.98 291.67 234.82 321.82 267.17 379.74 236.68"/><polyline class="cls-34" points="546.37 394.52 560.94 362.34 463.73 348.45 433.59 306.79 458.99 288.17 460.68 227.88 418.67 208.74 379.74 236.68 376.01 301.71 281.17 336.94 220.21 282.41 308.61 305.44 376.01 301.71 376.01 301.71 321.82 267.17 308.61 305.44"/><line class="cls-35" x1="376.01" y1="301.71" x2="404.46" y2="286.47"/><polyline class="cls-36" points="202.51 41.51 144.68 68.35 73.21 96.46 14.62 67 0.73 104.25 73.21 96.46 145.02 119.83 144.68 68.35 200.23 98.49 265.26 65.3 306.92 95.45 330.96 79.53 409.54 91.38 459.33 159.12 414.62 149.3 418.67 208.74 448.83 192.99 508.78 227.54 536.89 288.84 626.31 300.36"/><path class="cls-26" d="M563.14,362.41a2.73,2.73,0,1,0-2.73,2.73A2.73,2.73,0,0,0,563.14,362.41Z"/><path class="cls-26" d="M493.37,308.9a2.73,2.73,0,1,0-2.73,2.73A2.73,2.73,0,0,0,493.37,308.9Z"/><path class="cls-26" d="M539.62,288.84a2.73,2.73,0,1,0-2.73,2.73A2.73,2.73,0,0,0,539.62,288.84Z"/><path class="cls-26" d="M630.05,300a2.73,2.73,0,1,0-2.73,2.73A2.73,2.73,0,0,0,630.05,300Z"/><path class="cls-26" d="M437,306.36a2.73,2.73,0,1,0-2.73,2.73A2.73,2.73,0,0,0,437,306.36Z"/><path class="cls-26" d="M466.44,310.17a2.73,2.73,0,1,0-2.73,2.73A2.73,2.73,0,0,0,466.44,310.17Z"/><path class="cls-26" d="M466.1,348.1a2.73,2.73,0,1,0-2.73,2.73A2.73,2.73,0,0,0,466.1,348.1Z"/><path class="cls-26" d="M461.3,288.49a1.91,1.91,0,1,0-1.91,1.91A1.91,1.91,0,0,0,461.3,288.49Z"/><circle class="cls-26" cx="502.58" cy="343.19" r="1.91"/><circle class="cls-26" cx="507.42" cy="277.33" r="1.91"/><path class="cls-26" d="M378.91,301.21a2.73,2.73,0,1,0-2.73,2.73A2.73,2.73,0,0,0,378.91,301.21Z"/><path class="cls-26" d="M407.61,286a2.73,2.73,0,1,0-2.73,2.73A2.73,2.73,0,0,0,407.61,286Z"/><path class="cls-26" d="M549.17,394.17a2.73,2.73,0,1,0-2.73,2.73A2.73,2.73,0,0,0,549.17,394.17Z"/></g><g class="cls-1"><polyline class="cls-37" points="299.65 670.3 333.19 543.29 467.31 514.84 539.45 478.26 600.42 555.48 590.26 396.97 691.87 393.92 608.55 271.99 642.08 170.38 733.53 187.32"/><line class="cls-38" x1="708.38" y1="268.61" x2="608" y2="271.99"/><polyline class="cls-39" points="333.19 543.29 415.83 591.72 467.31 514.84 385.35 472.5 333.19 543.29 283.74 431.86 244.45 500.27"/><polyline class="cls-40" points="353.51 635.08 408.38 630.33 415.83 591.72 520.82 651.33 467.31 514.84 428.02 400.7 385.35 472.5 307.44 316.7 445.63 313.99 356.22 175.8 343.35 99.26 408.38 64.71 375.18 0.36"/><polyline class="cls-41" points="642.08 170.38 574.34 276.73 445.63 313.99 491.7 207.64 574.34 276.73"/><polyline class="cls-42" points="408.38 64.71 356.22 175.8 491.7 207.64 554.69 144.98 574.34 276.73 608.55 271.99 590.26 396.97 568.41 344.14"/><polyline class="cls-43" points="368.24 266.91 307.44 316.7 296.61 266.4 368.24 266.91 301.35 188 296.61 266.4 275.27 239.99"/><polygon class="cls-44" points="385.35 472.5 283.74 431.86 330.65 423.39 385.35 472.5"/><line class="cls-45" x1="750.8" y1="569.71" x2="812.1" y2="614.75"/><line class="cls-46" x1="691.87" y1="393.92" x2="746.4" y2="358.02"/><polyline class="cls-47" points="663.75 527.37 775.19 485.37 653.26 614.42 663.75 527.37 600.42 555.48 653.26 614.42 750.8 569.71 775.19 485.37 911.34 558.53 750.8 569.71"/><polyline class="cls-48" points="539.45 478.26 481.54 465.73 428.02 400.7 590.26 396.97 539.45 478.26 428.02 400.7 418.54 352.77 590.26 396.97"/><line class="cls-49" x1="481.54" y1="465.73" x2="467.31" y2="514.84"/><polyline class="cls-50" points="529.29 572.08 575.02 607.3 600.42 555.48 529.29 572.08 467.31 514.84 600.42 555.48 691.87 393.92 708.12 268.94 642.08 170.38 554.69 144.98 555.71 67.76 496.78 61.66 554.69 144.98"/><polyline class="cls-51" points="619.05 618.82 575.02 607.3 522.86 593.42"/><line class="cls-52" x1="775.19" y1="485.37" x2="683.23" y2="476.23"/><path class="cls-53" d="M441.89,313a2.73,2.73,0,1,0,2.73-2.73A2.73,2.73,0,0,0,441.89,313Z"/><circle class="cls-53" cx="608.55" cy="271.99" r="2.73"/><path class="cls-53" d="M479.12,466.07a2.73,2.73,0,1,0,2.73-2.73A2.73,2.73,0,0,0,479.12,466.07Z"/><path class="cls-53" d="M908.61,558.53a2.73,2.73,0,1,0,2.73-2.73A2.73,2.73,0,0,0,908.61,558.53Z"/><path class="cls-53" d="M679.31,476.23A2.73,2.73,0,1,0,682,473.5,2.73,2.73,0,0,0,679.31,476.23Z"/><path class="cls-53" d="M565.53,345.15a2.73,2.73,0,1,0,2.73-2.73A2.73,2.73,0,0,0,565.53,345.15Z"/><path class="cls-53" d="M743.67,358a2.73,2.73,0,1,0,2.73-2.73A2.73,2.73,0,0,0,743.67,358Z"/><path class="cls-53" d="M415.81,352.77a2.73,2.73,0,1,0,2.73-2.73A2.73,2.73,0,0,0,415.81,352.77Z"/><circle class="cls-53" cx="575.02" cy="605.95" r="2.73"/><path class="cls-53" d="M660.69,527.37a2.73,2.73,0,1,0,2.73-2.73A2.73,2.73,0,0,0,660.69,527.37Z"/><circle class="cls-53" cx="708.4" cy="268.73" r="4.45"/><circle class="cls-53" cx="574.61" cy="276.18" r="4.45"/><path class="cls-53" d="M423.58,400.7a4.45,4.45,0,1,0,4.45-4.45A4.45,4.45,0,0,0,423.58,400.7Z"/><circle class="cls-53" cx="751.14" cy="568.86" r="4.45"/><path class="cls-53" d="M595,554.13a4.45,4.45,0,1,0,4.45-4.45A4.45,4.45,0,0,0,595,554.13Z"/><circle class="cls-53" cx="415.83" cy="591.72" r="4.45"/><circle class="cls-53" cx="692.37" cy="392.4" r="4.45"/><circle class="cls-53" cx="467.31" cy="514.84" r="5.84"/><circle class="cls-53" cx="384.16" cy="471.15" r="5.84"/><circle class="cls-53" cx="541.32" cy="478.01" r="5.84"/><circle class="cls-53" cx="775.19" cy="485.37" r="5.84"/><circle class="cls-53" cx="654.27" cy="611.88" r="5.84"/><circle class="cls-53" cx="522.86" cy="593.25" r="5.84"/><circle class="cls-53" cx="589.92" cy="396.8" r="5.84"/></g></g></g></svg>